<svg width="44" height="44" viewBox="0 0 44 44" fill="none" xmlns="http://www.w3.org/2000/svg">
<path d="M8.03414 0C3.58358 0 0 3.58357 0 8.03412V35.9658C0 40.4164 3.58358 44 8.03414 44H23.1729V26.7987H18.6244V20.6057H23.1729V15.3147C23.1729 11.1578 25.8604 7.34112 32.0513 7.34112C34.5579 7.34112 36.4114 7.58176 36.4114 7.58176L36.2656 13.365C36.2656 13.365 34.3753 13.3472 32.3125 13.3472C30.08 13.3472 29.722 14.3758 29.722 16.0834V20.6058H36.443L36.1501 26.7988H29.722V44H35.9659C40.4164 44 44 40.4164 44 35.9659V8.03416C44 3.58362 40.4164 4.39999e-05 35.9659 4.39999e-05H8.03409L8.03414 0Z" fill="#D7A075"/>
</svg>
